<svg xmlns="http://www.w3.org/2000/svg" width="1614.67" height="329.167"><g aria-label="NoteLingo" style="font-size:345.002px;line-height:125%;font-family:Righteous;-inkscape-font-specification:Righteous;letter-spacing:0;word-spacing:0;fill:#322659;stroke-width:3.59377px"><path d="M193.221 260.1h-51.716L48.347 101.074v159.024H0V18.53h51.717l93.157 159.193V18.53h48.347zM404.805 168.29q0 20.215-7.244 37.734-7.244 17.351-19.71 30.154-12.466 12.634-29.311 20.047-16.678 7.243-35.882 7.243-19.036 0-35.881-7.243-16.678-7.413-29.312-20.047-12.466-12.803-19.71-30.154-7.243-17.52-7.243-37.734 0-20.552 7.243-38.072 7.244-17.52 19.71-30.154 12.634-12.803 29.312-20.046 16.845-7.244 35.881-7.244 19.204 0 35.882 6.907 16.845 6.738 29.311 19.372 12.466 12.466 19.71 30.154 7.244 17.52 7.244 39.083zm-46.326 0q0-11.119-3.706-20.047-3.538-9.097-9.771-15.498-6.233-6.57-14.656-9.94-8.254-3.537-17.688-3.537t-17.856 3.538q-8.255 3.37-14.488 9.939-6.064 6.401-9.602 15.498-3.538 8.928-3.538 20.047 0 10.444 3.538 19.372 3.538 8.929 9.602 15.498 6.233 6.57 14.488 10.445 8.422 3.706 17.856 3.706 9.434 0 17.688-3.538 8.423-3.537 14.656-9.939 6.233-6.401 9.77-15.498 3.707-9.097 3.707-20.046zM519.356 260.1q-16.677 0-31.333-6.234-14.656-6.401-25.774-17.35-10.95-11.12-17.351-25.775-6.233-14.656-6.233-31.333v-53.57H416.26v-45.82h22.405v-72.1h45.82v72.1h69.742v45.82h-69.742v53.57q0 7.243 2.696 13.645 2.695 6.233 7.412 10.95 4.717 4.716 11.118 7.58 6.401 2.696 13.645 2.696h34.87v45.82zM651.764 215.963q2.695.842 5.39 1.18 2.696.168 5.391.168 6.739 0 12.972-1.853t11.623-5.222q5.56-3.538 9.77-8.423 4.38-5.054 7.076-11.119l33.692 33.86q-6.402 9.097-14.825 16.341-8.254 7.244-18.025 12.297-9.602 5.054-20.383 7.581-10.613 2.695-21.9 2.695-19.035 0-35.881-7.075-16.678-7.075-29.312-19.71-12.466-12.634-19.71-29.985-7.243-17.52-7.243-38.408 0-21.395 7.244-39.083 7.243-17.688 19.71-30.154 12.633-12.466 29.31-19.372 16.847-6.907 35.882-6.907 11.287 0 22.068 2.695 10.782 2.696 20.384 7.75 9.77 5.053 18.193 12.465 8.423 7.244 14.825 16.34zm23.584-94.842q-3.2-1.179-6.401-1.516-3.032-.337-6.402-.337-9.433 0-17.856 3.538-8.255 3.37-14.488 9.77-6.064 6.402-9.602 15.499-3.537 8.928-3.537 20.215 0 2.526.168 5.727.337 3.2.842 6.57.674 3.2 1.517 6.233.842 3.032 2.19 5.39zM935.11 260.1H765.98V18.53h48.347v193.222H935.11zM1009.569 30.66q0 6.4-2.527 11.96-2.358 5.559-6.57 9.77-4.211 4.043-9.939 6.57-5.559 2.359-11.96 2.359-6.402 0-12.13-2.359-5.558-2.527-9.77-6.57-4.043-4.211-6.57-9.77-2.358-5.56-2.358-11.96 0-6.234 2.358-11.793 2.527-5.727 6.57-9.77 4.212-4.212 9.77-6.57Q972.172 0 978.574 0q6.401 0 11.96 2.527 5.728 2.358 9.94 6.57 4.21 4.043 6.569 9.77 2.527 5.56 2.527 11.792zm-7.918 229.44h-46.326V79.68h46.326zM1082.68 260.1h-45.99V79.68h11.119l15.161 17.52q11.118-10.107 25.1-15.498 14.15-5.559 29.48-5.559 16.51 0 31.165 6.401 14.656 6.233 25.606 17.352 10.95 10.95 17.183 25.774 6.401 14.656 6.401 31.333v103.096h-45.99V157.003q0-7.075-2.694-13.308-2.696-6.402-7.413-11.119-4.716-4.716-10.95-7.412-6.232-2.695-13.307-2.695-7.244 0-13.646 2.695-6.401 2.696-11.118 7.412-4.717 4.717-7.412 11.119-2.695 6.233-2.695 13.308zM1358.95 168.29q0-9.434-3.705-18.194-3.538-8.928-9.77-15.667-6.234-6.906-14.657-10.95-8.254-4.21-17.688-4.21-9.433 0-17.856 3.2-8.255 3.2-14.488 9.434-6.064 6.233-9.602 15.498-3.538 9.096-3.538 20.889 0 11.286 3.538 20.383 3.538 8.928 9.602 15.33 6.233 6.401 14.488 9.939 8.423 3.369 17.856 3.369 9.434 0 17.688-4.043 8.423-4.212 14.656-10.95 6.233-6.907 9.77-15.667 3.707-8.928 3.707-18.361zm46.327 69.067q0 19.036-7.244 35.713-7.244 16.678-19.878 29.144-12.466 12.466-29.312 19.71-16.677 7.243-35.713 7.243l-23.078-.337v-45.989l22.741.337q10.782 0 18.362-2.864 7.58-2.695 12.803-7.58 5.222-4.717 8.255-10.95 3.2-6.233 5.053-13.14-2.695 4.38-7.749 7.244-5.054 2.695-11.286 4.38-6.065 1.853-12.803 2.527-6.57.673-12.298.673-19.035 0-35.881-6.57-16.678-6.57-29.312-18.698-12.466-12.298-19.71-29.986-7.243-17.688-7.243-39.924 0-20.384 7.243-37.903 7.244-17.52 19.71-30.323 12.634-12.803 29.312-20.046 16.846-7.244 35.881-7.244 8.76 0 17.351 2.19 8.592 2.19 16.678 6.064 8.086 3.875 15.33 9.097 7.412 5.222 13.813 11.287l17.857-21.394h11.118zM1614.67 168.29q0 20.215-7.244 37.734-7.243 17.351-19.71 30.154-12.465 12.634-29.31 20.047-16.678 7.243-35.882 7.243-19.036 0-35.882-7.243-16.677-7.413-29.312-20.047-12.466-12.803-19.71-30.154-7.243-17.52-7.243-37.734 0-20.552 7.244-38.072 7.243-17.52 19.71-30.154 12.634-12.803 29.311-20.046 16.846-7.244 35.882-7.244 19.204 0 35.881 6.907 16.846 6.738 29.312 19.372 12.466 12.466 19.71 30.154 7.243 17.52 7.243 39.083zm-46.326 0q0-11.119-3.706-20.047-3.538-9.097-9.77-15.498-6.234-6.57-14.656-9.94-8.255-3.537-17.689-3.537-9.433 0-17.856 3.538-8.255 3.37-14.487 9.939-6.065 6.401-9.603 15.498-3.537 8.928-3.537 20.047 0 10.444 3.537 19.372 3.538 8.929 9.603 15.498 6.232 6.57 14.487 10.445 8.423 3.706 17.856 3.706 9.434 0 17.689-3.538 8.422-3.537 14.655-9.939 6.233-6.401 9.771-15.498 3.706-9.097 3.706-20.046z"/></g></svg>