<?xml version="1.0" encoding="UTF-8" standalone="no"?>
<svg
   width="2346.4954"
   height="681.23193"
   version="1.1"
   id="svg4"
   sodipodi:docname="logo2.svg"
   inkscape:version="1.2.1 (9c6d41e410, 2022-07-14)"
   xmlns:inkscape="http://www.inkscape.org/namespaces/inkscape"
   xmlns:sodipodi="http://sodipodi.sourceforge.net/DTD/sodipodi-0.dtd"
   xmlns="http://www.w3.org/2000/svg"
   xmlns:svg="http://www.w3.org/2000/svg">
  <defs
     id="defs8" />
  <sodipodi:namedview
     id="namedview6"
     pagecolor="#ffffff"
     bordercolor="#666666"
     borderopacity="1.0"
     inkscape:showpageshadow="2"
     inkscape:pageopacity="0.0"
     inkscape:pagecheckerboard="0"
     inkscape:deskcolor="#d1d1d1"
     showgrid="false"
     inkscape:zoom="0.43423965"
     inkscape:cx="1247.0073"
     inkscape:cy="630.98798"
     inkscape:window-width="1920"
     inkscape:window-height="1027"
     inkscape:window-x="-8"
     inkscape:window-y="479"
     inkscape:window-maximized="1"
     inkscape:current-layer="svg4" />
  <path
     d="m 141.17643,680.81261 c -10.83139,-1.57463 -21.40149,-6.21876 -30.40329,-13.35846 -9.3663,-7.42886 -15.770799,-18.22342 -18.366199,-30.95449 -2.5736,-12.61627 1.3205,-29.9056 9.483599,-42.11091 10.7841,-16.12304 28.3906,-25.82491 46.79009,-25.78459 23.65881,0.0517 39.16931,11.91001 42.38521,32.40555 1.96459,12.51901 -5.4406,25.33244 -17.7011,30.63114 -7.88011,3.40511 -7.6261,3.5383 -6.1697,-3.2211 1.82779,-8.48212 1.1391,-17.28846 -1.82441,-23.34599 -2.5533,-5.21895 -10.02249,-12.71266 -15.32819,-15.37735 -15.43181,-7.75132 -35.1649,-2.0031 -42.4238,12.35866 -6.8382,13.52933 -4.1561,27.39953 7.3036,37.76997 10.0576,9.10075 24.96869,14.52037 36.7482,13.35584 66.18519,-10.5311 58.7849,-79.20854 44.99559,-128.84323 -2.252,-7.71102 -4.34719,-14.31971 -4.65469,-14.68686 -0.3067,-0.36802 -5.2663,0.30055 -11.0198,1.48525 -17.16221,3.53217 -25.0703,4.2691 -40.2532,3.7486 -17.1088,-0.58709 -29.9757,-2.85395 -43.975599,-7.74958 -13.1447,-4.59593 -18.835,-7.44901 -29.1915,-14.63865 -25.82485,-17.92637 -43.12475,-43.08269 -49.51165,-71.99463 -2.221301,-10.05499 -2.681301,-29.33517 -0.939401,-39.43135 1.542201,-8.94653 7.982701,-29.04775 11.630601,-36.29961 4.1507,-8.25429 12.0248,-21.05722 16.7452,-27.22866 2.5796,-3.37357 6.3176,-8.30249 8.3067,-10.95316 4.8037,-6.40101 19.30385,-23.15758 28.05855,-32.42131 3.2305,-3.41489 6.4521,-6.83813 9.665,-10.26969 l 2.6262,-2.82152 -1.487,-5.06474 c -4.4733,-15.23978 -8.8021,-41.64475 -9.7352,-59.39237 -1.3012,-24.72433 3.8442,-57.80197 13.1525,-84.55833 4.915799,-14.127815 11.512199,-27.929435 20.767199,-47.568215 9.25499,-19.63877 16.09669,-31.4325 27.27769,-55.2774904 6.42951,-13.711852 29.2932,8.7817904 42.51141,41.5956904 9.02359,22.40226 12.77399,45.91122 12.1466,76.146315 -0.3321,16.01263 -0.7491,20.6147 -2.7821,30.66882 -3.4261,16.95373 -9.9805,35.55218 -18.679,53.01325 -9.6862,19.44403 -28.9418,45.71845 -51.2196,69.89337 l -6.7471,7.32196 2.0197,6.51932 c 2.6165,8.44707 5.7745,15.71996 6.8243,15.71996 0.4556,0 2.59199,-1.21186 4.74479,-2.6936 8.9404,-6.15129 24.57631,-12.20532 39.54361,-15.31163 10.331,-2.14507 12.3551,-2.28877 26.51879,-1.88395 13.60301,0.38819 16.47361,0.74482 25.41141,3.16415 31.9831,8.65563 57.9597,31.98584 67.4268,60.55691 8.3374,25.16158 6.6226,50.67016 -5.1463,76.58092 -6.0733,13.36986 -13.2244,23.27764 -26.3471,36.50028 -13.6871,13.79221 -30.0267,25.06169 -46.3723,31.98321 -4.3794,1.85414 -7.9624,3.74159 -7.9624,4.19374 0,0.45214 1.3643,4.80537 3.0318,9.67382 8.9342,26.07989 14.8473,52.93702 17.1904,78.07494 1.9951,21.40421 -1.5335,39.70999 -10.5475,54.70616 -10.0945,16.79513 -27.3268,29.08282 -47.3527,33.76288 -7.01441,1.63858 -20.6996,2.35011 -27.16381,1.41076 z m 2.3273,-185.81451 c 9.8789,-0.89114 27.1156,-4.51007 34.3211,-7.2063 4.3348,-1.62106 4.6415,-1.92249 4.1482,-4.07019 -0.7063,-3.07389 -8.5584,-25.16771 -13.4374,-37.80852 -2.1397,-5.54229 -5.778,-15.00582 -8.086,-21.03006 -2.3071,-6.02422 -5.3898,-13.71334 -6.84959,-17.08691 l -2.65511,-6.13376 -2.2012,4.74403 c -2.66819,5.74821 -4.5091,15.3826 -3.731,19.5264 0.3127,1.67013 2.15291,6.31077 4.0886,10.31349 1.9356,4.00272 3.3175,7.47968 3.0703,7.72678 -0.9226,0.9227 -13.1569,-1.7008 -19.69729,-4.22353 -22.0377,-8.49789 -39.973699,-28.20129 -44.311999,-48.67843 -1.5195,-7.17212 -1.6956,-20.7295 -0.3636,-28.02166 2.3159,-12.68463 9.4187,-25.53837 20.219499,-36.59053 l 7.58739,-7.76448 -2.04169,-5.83321 c -4.1796,-11.9477 -5.2679,-14.61939 -6.11,-15.00845 -0.8702,-0.40131 -23.549299,24.10832 -32.812199,35.46193 -24.38605,29.89247 -34.36135,53.34622 -33.08725,77.80242 1.742,33.43777 21.2596,61.56898 52.15455,75.17016 8.654699,3.80995 22.240089,7.5568 31.256699,8.62145 8.42259,0.99367 8.50669,0.99454 18.538,0.0894 z m 64.1812,-21.06948 c 17.0045,-9.02628 32.3766,-22.13763 43.8143,-37.37215 14.0095,-18.65716 20.1819,-37.73667 19.0848,-58.99104 -0.5486,-10.63245 -3.1466,-23.19878 -6.246,-30.20616 -5.9427,-13.43733 -18.2523,-26.68451 -29.8074,-32.07784 -8.4584,-3.94751 -14.6606,-5.19092 -25.824,-5.17515 -15.8865,0.021 -34.8048,5.8595 -48.4428,14.94887 -6.6174,4.41105 -20.8399,16.3421 -20.8399,17.48298 0,1.55009 6.9031,17.06063 7.5787,17.02733 0.4101,-0.0201 4.8861,-1.40025 9.9463,-3.06689 8.92731,-2.93982 9.6047,-3.02832 22.7826,-2.99502 12.5462,0.0324 14.1165,0.22169 20.5832,2.47453 9.3548,3.25966 16.1186,7.50423 21.4059,13.43645 11.1013,12.45592 12.6487,31.60378 3.7706,46.66832 -4.2166,7.15459 -13.6152,16.63213 -19.834,20.00044 -2.6927,1.45809 -4.8956,2.52537 -4.8956,2.37027 0,-0.15422 0.8289,-2.18713 1.841,-4.51621 3.7907,-8.7187 4.638,-12.81168 4.6853,-22.63622 0.057,-12.17114 -1.2197,-16.74518 -6.2406,-22.32865 -4.7126,-5.24174 -10.2846,-7.40346 -17.6776,-6.85843 -5.5703,0.41009 -13.1009,3.59964 -17.47779,7.4017 l -2.8871,2.50783 3.4585,7.11693 c 6.78649,13.96745 18.89199,43.9826 26.54869,65.83019 2.5762,7.34912 5.077,13.35407 5.5589,13.34531 0.482,-0.009 4.5828,-1.98208 9.114,-4.38739 z M 123.97304,390.2816 c 2.4333,-6.33443 8.0475,-15.00144 10.6648,-16.46741 0.7045,-0.39431 1.2811,-1.14964 1.2811,-1.6789 0,-2.14331 -7.3815,-18.97786 -8.1211,-18.52134 -2.2669,1.40113 -11.0101,14.60362 -11.9906,18.10687 -1.6097,5.7491 -0.8132,13.19198 2.10299,19.64558 1.3617,3.01255 2.7173,5.4722 3.01341,5.46606 0.29529,-0.007 1.6675,-2.95385 3.0494,-6.55086 z m -15.2179,-139.78411 c 0,-0.48807 4.9798,-6.69895 11.0662,-13.80097 32.8156,-38.29398 48.30429,-66.71784 53.35229,-97.90979 3.2816,-20.27734 2.2984,-52.314005 -2.2458,-73.167055 -2.174,-9.97788 -6.04,-23.82967 -6.9137,-24.77777 -0.3461,-0.37504 -2.7373,3.17378 -5.3143,7.88626 -2.5772,4.71248 -7.6471,13.49603 -11.2652,19.52027 -23.2916,38.776785 -34.05729,71.545995 -40.01319,121.799045 -2.0416,17.22449 -2.6847,43.75653 -1.2959,53.44612 0.6221,4.34095 1.4686,7.89153 1.8804,7.89153 0.4119,0 0.7492,-0.39957 0.7492,-0.88764 z"
     style="fill:#cccccc;fill-opacity:1;stroke:none;stroke-width:2;stroke-dasharray:none"
     id="path2-1"
     sodipodi:nodetypes="ssccccccscsccccccccscccccccccczscccccccsccccscccscsccsssccccccccsccsccccccsccsscccccccscccccscsccccscccccccscccccscsccccccss" />
  <g
     aria-label="NoteLingo"
     id="text908-7-7"
     style="font-size:461.09px;line-height:125%;letter-spacing:0px;word-spacing:0px;fill:#cccccc;stroke-width:4.80302px"
     transform="translate(7.9999996)">
    <path
       d="m 604.33665,410.9106 c 0,0 -78.3853,-109.73942 -154.92624,-228.70064 0,0 -15.67706,1.84436 -30.89303,1.84436 -12.91052,0 -39.65374,-2.30545 -39.65374,-2.30545 l -3.68872,17.06033 1.38327,2.30545 c 30.89303,3.22763 40.11483,9.68289 40.11483,28.58758 l -5.99417,201.49633 c -0.46109,18.90469 -9.68289,26.74322 -28.58758,29.04867 l -2.30545,21.21014 c 0,0 24.43777,-3.68872 42.88137,-3.68872 19.82687,0 48.87554,1.84436 48.87554,1.84436 l 4.14981,-20.74905 -0.92218,-1.84436 c 0,0 -18.90469,0.46109 -23.51559,0.46109 -10.60507,0 -14.29379,-4.6109 -14.29379,-18.4436 l 2.30545,-196.88543 h 2.30545 c 0,0 81.61293,113.88923 171.52548,254.06059 l 13.37161,-6.45526 6.45526,-259.13258 c 0.46109,-17.98251 10.14398,-26.28213 31.35412,-29.04867 l 2.30545,-21.21014 c 0,0 -26.28213,3.68872 -45.64791,3.68872 -15.67706,0 -43.80355,-1.84436 -43.80355,-1.84436 l -4.14981,20.74905 0.92218,1.84436 c 0,0 9.2218,-0.46109 17.52142,-0.46109 10.14398,0 15.21597,6.45526 15.21597,19.82687 V 410.9106 Z"
       style="font-family:Alegreya;-inkscape-font-specification:Alegreya"
       id="path1073" />
    <path
       d="m 787.85041,483.30173 c 60.40279,0 106.97288,-51.18099 106.97288,-117.11686 0,-60.40279 -36.8872,-102.36198 -89.45146,-102.36198 -60.40279,0 -106.97288,51.18099 -106.97288,117.11686 0,60.40279 36.42611,102.36198 89.45146,102.36198 z m 12.91052,-22.59341 c -38.73156,0 -65.47478,-37.80938 -65.47478,-93.14018 0,-48.41445 21.67123,-78.84639 56.25298,-78.84639 38.73156,0 65.47478,38.73156 65.47478,94.06236 0,47.95336 -21.67123,77.92421 -56.25298,77.92421 z"
       style="font-family:Alegreya;-inkscape-font-specification:Alegreya"
       id="path1075" />
    <path
       d="m 949.23156,427.50984 c 0,40.57592 15.21597,55.79189 57.17514,55.79189 11.0662,0 46.5701,-27.6654 46.5701,-27.6654 l -4.6109,-11.98834 c 0,0 -16.1381,8.29962 -31.3541,8.29962 -26.28214,0 -35.96503,-11.52725 -35.96503,-42.88137 0,-47.49227 1.38327,-86.22383 3.22763,-115.2725 l 66.858,1.38327 4.1499,-24.43777 -1.3833,-1.38327 -67.78024,1.38327 c 1.84436,-22.59341 3.68872,-34.58175 3.68872,-34.58175 l -9.2218,-3.68872 c 0,0 -27.20431,27.20431 -57.17516,41.95919 l -2.30545,13.8327 1.84436,2.76654 c 20.28796,0.92218 26.28213,6.45526 26.28213,23.0545 z"
       style="font-family:Alegreya;-inkscape-font-specification:Alegreya"
       id="path1077" />
    <path
       d="m 1116.6072,341.7471 c 5.5331,-33.65957 28.1265,-54.40862 56.7141,-54.40862 24.4377,0 38.2704,13.37161 38.2704,37.80938 0,9.2218 -2.3054,11.52725 -11.5272,12.44943 z m 125.4165,17.06033 5.9941,-5.53308 c 0,0 2.7666,-11.06616 2.7666,-22.59341 0,-43.80355 -23.5156,-66.85805 -68.7024,-66.85805 -54.8697,0 -101.9009,54.40862 -101.9009,117.57795 0,60.86388 38.7315,101.90089 96.8289,101.90089 27.6654,0 70.5468,-31.35412 70.5468,-31.35412 l -5.072,-13.37161 -2.7666,-0.92218 c 0,0 -28.1265,14.29379 -56.714,14.29379 -41.0371,0 -68.2414,-34.12066 -68.2414,-85.76274 v -7.37744 z"
       style="font-family:Alegreya;-inkscape-font-specification:Alegreya"
       id="path1079" />
    <path
       d="m 1363.2903,477.76865 c 43.8036,0 124.0332,4.14981 124.0332,4.14981 l 2.3055,-2.76654 c 5.072,-45.64791 13.3716,-87.6071 13.3716,-87.6071 l -1.3833,-2.30545 -20.2879,2.30545 c -10.144,56.71407 -19.8269,65.47478 -73.3133,65.47478 -34.5818,0 -39.1927,-4.14981 -39.1927,-35.50393 0,-41.95919 1.3833,-120.34449 5.5331,-177.98074 2.3054,-30.89303 -0.4611,-38.73156 30.4319,-42.88137 l 1.8444,-20.74905 c 0,0 -29.5098,4.14981 -49.3366,4.14981 -17.5215,0 -51.6421,-1.38327 -51.6421,-1.38327 l -3.2277,20.28796 0.9222,1.84436 c 0,0 10.144,-0.92218 15.6771,-0.92218 13.8327,0 17.0603,5.07199 17.0603,24.89886 l -0.4611,193.6578 c 0,26.28213 -7.3774,35.04284 -31.3541,38.73156 l -2.7665,21.21014 c 0,0 27.2043,-4.6109 61.786,-4.6109 z"
       style="font-family:Alegreya;-inkscape-font-specification:Alegreya"
       id="path1081" />
    <path
       d="m 1565.2478,200.19247 c 15.2159,0 27.2043,-11.98834 27.2043,-27.20431 0,-13.8327 -9.6829,-23.51559 -22.5934,-23.51559 -15.216,0 -27.2043,11.98834 -27.2043,27.20431 0,13.8327 9.2218,23.51559 22.5934,23.51559 z m -41.037,283.10926 c 0,0 28.1264,-5.53308 47.4922,-5.53308 17.0603,0 41.037,1.38327 41.037,1.38327 l 3.6887,-19.82687 -0.9221,-1.84436 c 0,0 -10.6051,0.92218 -16.1382,0.92218 -11.5272,0 -16.1381,-7.83853 -16.1381,-25.82104 0,-72.39113 5.072,-150.31534 10.605,-163.22586 l -2.3054,-5.53308 c 0,0 -35.5039,8.76071 -66.397,13.37161 l -1.8443,17.06033 c 0,0 6.4552,-1.84436 11.5272,-1.84436 11.5273,0 17.0604,7.83853 17.0604,24.89886 v 117.11686 c 0,16.13815 -7.3775,24.89886 -25.8211,29.97085 z"
       style="font-family:Alegreya;-inkscape-font-specification:Alegreya"
       id="path1083" />
    <path
       d="m 1781.9598,483.30173 c 0,0 28.1265,-5.53308 47.4922,-5.53308 17.0604,0 41.0371,1.38327 41.0371,1.38327 l 3.6887,-19.82687 -0.9222,-1.84436 c 0,0 -10.6051,0.92218 -16.1382,0.92218 -11.5272,0 -16.1381,-7.83853 -16.1381,-25.82104 0,-26.74322 6.4553,-93.14018 6.4553,-109.27833 0,-36.42611 -24.4378,-59.48061 -63.1694,-59.48061 -14.7549,0 -56.714,27.6654 -67.7802,35.04284 l -0.9222,-1.38327 c 0.9222,-15.67706 5.072,-30.43194 5.072,-30.43194 l -2.7665,-3.68872 c 0,0 -32.7374,8.29962 -64.5526,13.37161 l -1.3833,15.21597 1.3833,1.84436 h 5.072 c 16.5992,0 22.5934,7.37744 22.5934,28.12649 v 112.50596 c 0,17.06033 -6.9164,24.43777 -24.4378,27.20431 l -2.3055,18.90469 c 0,0 26.2822,-2.76654 45.648,-2.76654 17.0603,0 41.9591,1.38327 41.9591,1.38327 l 4.1499,-19.82687 -0.9222,-1.84436 c 0,0 -10.6051,0.92218 -16.1382,0.92218 -11.9883,0 -16.5992,-6.91635 -16.5992,-25.82104 0,-17.98251 2.7665,-81.61293 4.1498,-113.42814 9.2218,-6.91635 34.1207,-23.97668 56.7141,-23.97668 24.4377,0 38.2704,17.52142 38.2704,47.95336 l -1.8443,91.29582 c 0,16.13815 -7.3775,24.89886 -25.8211,29.97085 z"
       style="font-family:Alegreya;-inkscape-font-specification:Alegreya"
       id="path1085" />
    <path
       d="m 1998.2111,417.82695 c 51.181,0 91.2958,-35.96502 91.2958,-82.07402 0,-17.06033 -6.4552,-33.19848 -18.4436,-46.57009 l 1.8444,-2.30545 c 19.3658,-1.38327 39.6537,-4.14981 39.6537,-4.14981 l 5.072,-25.82104 -1.3833,-1.84436 c 0,0 -40.1148,11.06616 -63.6304,13.8327 -11.9883,0 -27.6654,-5.07199 -45.1868,-5.07199 -45.6479,0 -85.7627,38.27047 -85.7627,82.07402 0,27.20431 12.4494,49.79772 34.1206,61.32497 v 1.84436 c 0,0 -24.4377,14.75488 -38.7315,29.50976 0,22.13232 21.6712,41.4981 50.2588,45.18682 v 2.76654 c 0,0 -30.432,21.21014 -45.6479,41.4981 0,38.73156 25.821,61.32497 69.6245,61.32497 58.5585,0 114.3504,-40.57592 114.3504,-82.9962 0,-32.2763 -26.7433,-45.64791 -98.2122,-49.33663 -37.8094,-1.38327 -55.3308,-8.29962 -55.3308,-22.59341 0,-5.99417 6.9164,-13.37161 19.3658,-20.28796 9.6829,2.30545 17.9825,3.68872 26.7432,3.68872 z m 11.0662,-20.28796 c -31.8153,0 -53.0254,-23.97668 -53.0254,-59.48061 0,-30.89303 17.5214,-50.7199 45.6479,-50.7199 31.3541,0 53.0254,24.43777 53.0254,59.9417 0,31.35412 -17.5215,50.25881 -45.6479,50.25881 z m -0.9222,169.22003 c -31.8152,0 -50.7199,-14.29379 -50.7199,-37.80938 0,-20.74905 28.5876,-41.95919 28.5876,-41.95919 73.7744,9.68289 89.9125,16.13815 89.9125,34.12066 0,23.97668 -31.8152,45.64791 -67.7802,45.64791 z"
       style="font-family:Alegreya;-inkscape-font-specification:Alegreya"
       id="path1087" />
    <path
       d="m 2231.5226,483.30173 c 60.4028,0 106.9728,-51.18099 106.9728,-117.11686 0,-60.40279 -36.8872,-102.36198 -89.4514,-102.36198 -60.4028,0 -106.9729,51.18099 -106.9729,117.11686 0,60.40279 36.4261,102.36198 89.4515,102.36198 z m 12.9105,-22.59341 c -38.7316,0 -65.4748,-37.80938 -65.4748,-93.14018 0,-48.41445 21.6712,-78.84639 56.253,-78.84639 38.7315,0 65.4748,38.73156 65.4748,94.06236 0,47.95336 -21.6713,77.92421 -56.253,77.92421 z"
       style="font-family:Alegreya;-inkscape-font-specification:Alegreya"
       id="path1089" />
  </g>
  <path
     d="m 125.11877,675.68851 c -10.8314,-1.57463 -21.4015,-6.21876 -30.403294,-13.35846 -9.3663,-7.42886 -15.7708,-18.22342 -18.3662,-30.95449 -2.5736,-12.61627 1.3205,-29.9056 9.4836,-42.11091 10.7841,-16.12304 28.390594,-25.82491 46.790094,-25.78459 23.6588,0.0517 39.1693,11.91001 42.3852,32.40555 1.9646,12.51901 -5.4406,25.33244 -17.7011,30.63114 -7.8801,3.40511 -7.6261,3.5383 -6.1697,-3.2211 1.8278,-8.48212 1.1391,-17.28846 -1.8244,-23.34599 -2.5533,-5.21895 -10.0225,-12.71266 -15.3282,-15.37735 -15.4318,-7.75132 -35.164894,-2.0031 -42.423794,12.35866 -6.8382,13.52933 -4.1561,27.39953 7.3036,37.76997 10.057594,9.10075 24.968694,14.52037 36.748194,13.35584 66.1852,-10.5311 58.7849,-79.20854 44.9956,-128.84323 -2.252,-7.71102 -4.3472,-14.31971 -4.6547,-14.68686 -0.3067,-0.36802 -5.2663,0.30055 -11.0198,1.48525 -17.1622,3.53217 -25.0703,4.2691 -40.2532,3.7486 -17.1088,-0.58709 -29.975694,-2.85395 -43.975594,-7.74958 -13.1447,-4.59593 -18.835,-7.44901 -29.1915,-14.63865 -25.82485,-17.92637 -43.1247508,-43.08269 -49.5116504,-71.99463 -2.22129998,-10.05499 -2.68129998,-29.33517 -0.9394,-39.43135 1.5422,-8.94653 7.9826996,-29.04775 11.6306004,-36.29961 4.1507,-8.25429 12.0248,-21.05722 16.7452,-27.22866 2.5796,-3.37357 6.3176,-8.30249 8.3067,-10.95316 4.8037,-6.40101 19.30385,-23.15758 28.05855,-32.42131 3.2305,-3.41489 6.4521,-6.83813 9.665,-10.26969 l 2.6262,-2.82152 -1.487,-5.06474 c -4.4733,-15.23978 -8.8021,-41.64475 -9.7352,-59.39237 -1.3012,-24.72433 3.8442,-57.80197 13.1525,-84.55833 4.9158,-14.127811 11.5122,-27.929431 20.767194,-47.568211 9.255,-19.638776 16.0967,-31.432506 27.2777,-55.2774956 6.4295,-13.7118506 29.2932,8.7817916 42.5114,41.5956916 9.0236,22.402264 12.774,45.911224 12.1466,76.146315 -0.3321,16.01263 -0.7491,20.6147 -2.7821,30.66882 -3.4261,16.95373 -9.9805,35.55218 -18.679,53.01325 -9.6862,19.44403 -28.9418,45.71845 -51.2196,69.89337 l -6.7471,7.32196 2.0197,6.51932 c 2.6165,8.44707 5.7745,15.71996 6.8243,15.71996 0.4556,0 2.592,-1.21186 4.7448,-2.6936 8.9404,-6.15129 24.5763,-12.20532 39.5436,-15.31163 10.331,-2.14507 12.3551,-2.28877 26.5188,-1.88395 13.603,0.38819 16.4736,0.74482 25.4114,3.16415 31.9831,8.65563 57.9597,31.98584 67.4268,60.55691 8.3374,25.16158 6.6226,50.67016 -5.1463,76.58092 -6.0733,13.36986 -13.2244,23.27764 -26.3471,36.50028 -13.6871,13.79221 -30.0267,25.06169 -46.3723,31.98321 -4.3794,1.85414 -7.9624,3.74159 -7.9624,4.19374 0,0.45214 1.3643,4.80537 3.0318,9.67382 8.9342,26.07989 14.8473,52.93702 17.1904,78.07494 1.9951,21.40421 -1.5335,39.70999 -10.5475,54.70616 -10.0945,16.79513 -27.3268,29.08282 -47.3527,33.76288 -7.0144,1.63858 -20.6996,2.35011 -27.1638,1.41076 z m 2.3273,-185.81451 c 9.8789,-0.89114 27.1156,-4.51007 34.3211,-7.2063 4.3348,-1.62106 4.6415,-1.92249 4.1482,-4.07019 -0.7063,-3.07389 -8.5584,-25.16771 -13.4374,-37.80852 -2.1397,-5.54229 -5.778,-15.00582 -8.086,-21.03006 -2.3071,-6.02422 -5.3898,-13.71334 -6.8496,-17.08691 l -2.6551,-6.13376 -2.2012,4.74403 c -2.6682,5.74821 -4.5091,15.3826 -3.731,19.5264 0.3127,1.67013 2.1529,6.31077 4.0886,10.31349 1.9356,4.00272 3.3175,7.47968 3.0703,7.72678 -0.9226,0.9227 -13.1569,-1.7008 -19.6973,-4.22353 -22.037694,-8.49789 -39.973694,-28.20129 -44.311994,-48.67843 -1.5195,-7.17212 -1.6956,-20.7295 -0.3636,-28.02166 2.3159,-12.68463 9.4187,-25.53837 20.2195,-36.59053 l 7.587395,-7.76448 -2.041695,-5.83321 c -4.1796,-11.9477 -5.2679,-14.61939 -6.11,-15.00845 -0.8702,-0.40131 -23.5493,24.10832 -32.8122,35.46193 -24.38605,29.89247 -34.36135,53.34622 -33.08725,77.80242 1.742,33.43777 21.2596,61.56898 52.15455,75.17016 8.6547,3.80995 22.240095,7.5568 31.256694,8.62145 8.4226,0.99367 8.5067,0.99454 18.538,0.0894 z m 64.1812,-21.06948 c 17.0045,-9.02628 32.3766,-22.13763 43.8143,-37.37215 14.0095,-18.65716 20.1819,-37.73667 19.0848,-58.99104 -0.5486,-10.63245 -3.1466,-23.19878 -6.246,-30.20616 -5.9427,-13.43733 -18.2523,-26.68451 -29.8074,-32.07784 -8.4584,-3.94751 -14.6606,-5.19092 -25.824,-5.17515 -15.8865,0.021 -34.8048,5.8595 -48.4428,14.94887 -6.6174,4.41105 -20.8399,16.3421 -20.8399,17.48298 0,1.55009 6.9031,17.06063 7.5787,17.02733 0.4101,-0.0201 4.8861,-1.40025 9.9463,-3.06689 8.9273,-2.93982 9.6047,-3.02832 22.7826,-2.99502 12.5462,0.0324 14.1165,0.22169 20.5832,2.47453 9.3548,3.25966 16.1186,7.50423 21.4059,13.43645 11.1013,12.45592 12.6487,31.60378 3.7706,46.66832 -4.2166,7.15459 -13.6152,16.63213 -19.834,20.00044 -2.6927,1.45809 -4.8956,2.52537 -4.8956,2.37027 0,-0.15422 0.8289,-2.18713 1.841,-4.51621 3.7907,-8.7187 4.638,-12.81168 4.6853,-22.63622 0.057,-12.17114 -1.2197,-16.74518 -6.2406,-22.32865 -4.7126,-5.24174 -10.2846,-7.40346 -17.6776,-6.85843 -5.5703,0.41009 -13.1009,3.59964 -17.4778,7.4017 l -2.8871,2.50783 3.4585,7.11693 c 6.7865,13.96745 18.892,43.9826 26.5487,65.83019 2.5762,7.34912 5.077,13.35407 5.5589,13.34531 0.482,-0.009 4.5828,-1.98208 9.114,-4.38739 z m -83.7119,-83.64702 c 2.4333,-6.33443 8.0475,-15.00144 10.6648,-16.46741 0.7045,-0.39431 1.2811,-1.14964 1.2811,-1.6789 0,-2.14331 -7.3815,-18.97786 -8.1211,-18.52134 -2.2669,1.40113 -11.0101,14.60362 -11.990599,18.10687 -1.609695,5.7491 -0.813195,13.19198 2.102999,19.64558 1.3617,3.01255 2.7173,5.4722 3.0134,5.46606 0.2953,-0.007 1.6675,-2.95385 3.0494,-6.55086 z M 92.697476,245.37339 c 0,-0.48807 4.9798,-6.69895 11.066194,-13.80097 32.8156,-38.29398 48.3043,-66.71784 53.3523,-97.90979 3.2816,-20.27734 2.2984,-52.314001 -2.2458,-73.167051 -2.174,-9.977884 -6.04,-23.829674 -6.9137,-24.777774 -0.3461,-0.37504 -2.7373,3.17378 -5.3143,7.88626 -2.5772,4.71248 -7.6471,13.496034 -11.2652,19.520274 -23.2916,38.776781 -34.057294,71.545991 -40.013194,121.799041 -2.0416,17.22449 -2.6847,43.75653 -1.2959,53.44612 0.6221,4.34095 1.4686,7.89153 1.8804,7.89153 0.4119,0 0.7492,-0.39957 0.7492,-0.88764 z"
     style="fill:#000000;stroke:none;stroke-width:2;stroke-dasharray:none"
     id="path2"
     sodipodi:nodetypes="ssccccccscsccccccccscccccccccczscccccccsccccscccscsccsssccccccccsccsccccccsccsscccccccscccccscsccccscccccccscccccscsccccccss" />
  <g
     aria-label="NoteLingo"
     id="text908-7"
     style="font-size:461.09px;line-height:125%;letter-spacing:0px;word-spacing:0px;stroke-width:4.80302px"
     transform="translate(7.9999996)">
    <path
       d="m 596.33665,396.9106 c 0,0 -78.3853,-109.73942 -154.92624,-228.70064 0,0 -15.67706,1.84436 -30.89303,1.84436 -12.91052,0 -39.65374,-2.30545 -39.65374,-2.30545 l -3.68872,17.06033 1.38327,2.30545 c 30.89303,3.22763 40.11483,9.68289 40.11483,28.58758 l -5.99417,201.49633 c -0.46109,18.90469 -9.68289,26.74322 -28.58758,29.04867 l -2.30545,21.21014 c 0,0 24.43777,-3.68872 42.88137,-3.68872 19.82687,0 48.87554,1.84436 48.87554,1.84436 l 4.14981,-20.74905 -0.92218,-1.84436 c 0,0 -18.90469,0.46109 -23.51559,0.46109 -10.60507,0 -14.29379,-4.6109 -14.29379,-18.4436 l 2.30545,-196.88543 h 2.30545 c 0,0 81.61293,113.88923 171.52548,254.06059 l 13.37161,-6.45526 6.45526,-259.13258 c 0.46109,-17.98251 10.14398,-26.28213 31.35412,-29.04867 l 2.30545,-21.21014 c 0,0 -26.28213,3.68872 -45.64791,3.68872 -15.67706,0 -43.80355,-1.84436 -43.80355,-1.84436 l -4.14981,20.74905 0.92218,1.84436 c 0,0 9.2218,-0.46109 17.52142,-0.46109 10.14398,0 15.21597,6.45526 15.21597,19.82687 V 396.9106 Z"
       style="font-family:Alegreya;-inkscape-font-specification:Alegreya"
       id="path1054" />
    <path
       d="m 779.85041,469.30173 c 60.40279,0 106.97288,-51.18099 106.97288,-117.11686 0,-60.40279 -36.8872,-102.36198 -89.45146,-102.36198 -60.40279,0 -106.97288,51.18099 -106.97288,117.11686 0,60.40279 36.42611,102.36198 89.45146,102.36198 z m 12.91052,-22.59341 c -38.73156,0 -65.47478,-37.80938 -65.47478,-93.14018 0,-48.41445 21.67123,-78.84639 56.25298,-78.84639 38.73156,0 65.47478,38.73156 65.47478,94.06236 0,47.95336 -21.67123,77.92421 -56.25298,77.92421 z"
       style="font-family:Alegreya;-inkscape-font-specification:Alegreya"
       id="path1056" />
    <path
       d="m 941.23156,413.50984 c 0,40.57592 15.21597,55.79189 57.17516,55.79189 11.06618,0 46.57008,-27.6654 46.57008,-27.6654 l -4.6109,-11.98834 c 0,0 -16.1381,8.29962 -31.3541,8.29962 -26.28214,0 -35.96503,-11.52725 -35.96503,-42.88137 0,-47.49227 1.38327,-86.22383 3.22763,-115.2725 l 66.858,1.38327 4.1499,-24.43777 -1.3833,-1.38327 -67.78024,1.38327 c 1.84436,-22.59341 3.68872,-34.58175 3.68872,-34.58175 l -9.2218,-3.68872 c 0,0 -27.20431,27.20431 -57.17516,41.95919 l -2.30545,13.8327 1.84436,2.76654 c 20.28796,0.92218 26.28213,6.45526 26.28213,23.0545 z"
       style="font-family:Alegreya;-inkscape-font-specification:Alegreya"
       id="path1058" />
    <path
       d="m 1108.6072,327.7471 c 5.5331,-33.65957 28.1265,-54.40862 56.7141,-54.40862 24.4377,0 38.2704,13.37161 38.2704,37.80938 0,9.2218 -2.3054,11.52725 -11.5272,12.44943 z m 125.4165,17.06033 5.9941,-5.53308 c 0,0 2.7666,-11.06616 2.7666,-22.59341 0,-43.80355 -23.5156,-66.85805 -68.7024,-66.85805 -54.8697,0 -101.9009,54.40862 -101.9009,117.57795 0,60.86388 38.7315,101.90089 96.8289,101.90089 27.6654,0 70.5468,-31.35412 70.5468,-31.35412 l -5.072,-13.37161 -2.7666,-0.92218 c 0,0 -28.1265,14.29379 -56.714,14.29379 -41.0371,0 -68.2414,-34.12066 -68.2414,-85.76274 v -7.37744 z"
       style="font-family:Alegreya;-inkscape-font-specification:Alegreya"
       id="path1060" />
    <path
       d="m 1355.2903,463.76865 c 43.8036,0 124.0332,4.14981 124.0332,4.14981 l 2.3055,-2.76654 c 5.072,-45.64791 13.3716,-87.6071 13.3716,-87.6071 l -1.3833,-2.30545 -20.2879,2.30545 c -10.144,56.71407 -19.8269,65.47478 -73.3133,65.47478 -34.5818,0 -39.1927,-4.14981 -39.1927,-35.50393 0,-41.95919 1.3833,-120.34449 5.5331,-177.98074 2.3054,-30.89303 -0.4611,-38.73156 30.4319,-42.88137 l 1.8444,-20.74905 c 0,0 -29.5098,4.14981 -49.3366,4.14981 -17.5215,0 -51.6421,-1.38327 -51.6421,-1.38327 l -3.2277,20.28796 0.9222,1.84436 c 0,0 10.144,-0.92218 15.6771,-0.92218 13.8327,0 17.0603,5.07199 17.0603,24.89886 l -0.4611,193.6578 c 0,26.28213 -7.3774,35.04284 -31.3541,38.73156 l -2.7665,21.21014 c 0,0 27.2043,-4.6109 61.786,-4.6109 z"
       style="font-family:Alegreya;-inkscape-font-specification:Alegreya"
       id="path1062" />
    <path
       d="m 1557.2478,186.19247 c 15.2159,0 27.2043,-11.98834 27.2043,-27.20431 0,-13.8327 -9.6829,-23.51559 -22.5934,-23.51559 -15.216,0 -27.2043,11.98834 -27.2043,27.20431 0,13.8327 9.2218,23.51559 22.5934,23.51559 z m -41.037,283.10926 c 0,0 28.1264,-5.53308 47.4922,-5.53308 17.0603,0 41.037,1.38327 41.037,1.38327 l 3.6887,-19.82687 -0.9221,-1.84436 c 0,0 -10.6051,0.92218 -16.1382,0.92218 -11.5272,0 -16.1381,-7.83853 -16.1381,-25.82104 0,-72.39113 5.072,-150.31534 10.605,-163.22586 l -2.3054,-5.53308 c 0,0 -35.5039,8.76071 -66.397,13.37161 l -1.8443,17.06033 c 0,0 6.4552,-1.84436 11.5272,-1.84436 11.5273,0 17.0604,7.83853 17.0604,24.89886 v 117.11686 c 0,16.13815 -7.3775,24.89886 -25.8211,29.97085 z"
       style="font-family:Alegreya;-inkscape-font-specification:Alegreya"
       id="path1064" />
    <path
       d="m 1773.9598,469.30173 c 0,0 28.1265,-5.53308 47.4922,-5.53308 17.0604,0 41.0371,1.38327 41.0371,1.38327 l 3.6887,-19.82687 -0.9222,-1.84436 c 0,0 -10.6051,0.92218 -16.1382,0.92218 -11.5272,0 -16.1381,-7.83853 -16.1381,-25.82104 0,-26.74322 6.4553,-93.14018 6.4553,-109.27833 0,-36.42611 -24.4378,-59.48061 -63.1694,-59.48061 -14.7549,0 -56.714,27.6654 -67.7802,35.04284 l -0.9222,-1.38327 c 0.9222,-15.67706 5.072,-30.43194 5.072,-30.43194 l -2.7665,-3.68872 c 0,0 -32.7374,8.29962 -64.5526,13.37161 l -1.3833,15.21597 1.3833,1.84436 h 5.072 c 16.5992,0 22.5934,7.37744 22.5934,28.12649 v 112.50596 c 0,17.06033 -6.9164,24.43777 -24.4378,27.20431 l -2.3055,18.90469 c 0,0 26.2822,-2.76654 45.648,-2.76654 17.0603,0 41.9591,1.38327 41.9591,1.38327 l 4.1499,-19.82687 -0.9222,-1.84436 c 0,0 -10.6051,0.92218 -16.1382,0.92218 -11.9883,0 -16.5992,-6.91635 -16.5992,-25.82104 0,-17.98251 2.7665,-81.61293 4.1498,-113.42814 9.2218,-6.91635 34.1207,-23.97668 56.7141,-23.97668 24.4377,0 38.2704,17.52142 38.2704,47.95336 l -1.8443,91.29582 c 0,16.13815 -7.3775,24.89886 -25.8211,29.97085 z"
       style="font-family:Alegreya;-inkscape-font-specification:Alegreya"
       id="path1066" />
    <path
       d="m 1990.2111,403.82695 c 51.181,0 91.2958,-35.96502 91.2958,-82.07402 0,-17.06033 -6.4552,-33.19848 -18.4436,-46.57009 l 1.8444,-2.30545 c 19.3658,-1.38327 39.6537,-4.14981 39.6537,-4.14981 l 5.072,-25.82104 -1.3833,-1.84436 c 0,0 -40.1148,11.06616 -63.6304,13.8327 -11.9883,0 -27.6654,-5.07199 -45.1868,-5.07199 -45.6479,0 -85.7627,38.27047 -85.7627,82.07402 0,27.20431 12.4494,49.79772 34.1206,61.32497 v 1.84436 c 0,0 -24.4377,14.75488 -38.7315,29.50976 0,22.13232 21.6712,41.4981 50.2588,45.18682 v 2.76654 c 0,0 -30.432,21.21014 -45.6479,41.4981 0,38.73156 25.821,61.32497 69.6245,61.32497 58.5585,0 114.3504,-40.57592 114.3504,-82.9962 0,-32.2763 -26.7433,-45.64791 -98.2122,-49.33663 -37.8094,-1.38327 -55.3308,-8.29962 -55.3308,-22.59341 0,-5.99417 6.9164,-13.37161 19.3658,-20.28796 9.6829,2.30545 17.9825,3.68872 26.7432,3.68872 z m 11.0662,-20.28796 c -31.8153,0 -53.0254,-23.97668 -53.0254,-59.48061 0,-30.89303 17.5214,-50.7199 45.6479,-50.7199 31.3541,0 53.0254,24.43777 53.0254,59.9417 0,31.35412 -17.5215,50.25881 -45.6479,50.25881 z m -0.9222,169.22003 c -31.8152,0 -50.7199,-14.29379 -50.7199,-37.80938 0,-20.74905 28.5876,-41.95919 28.5876,-41.95919 73.7744,9.68289 89.9125,16.13815 89.9125,34.12066 0,23.97668 -31.8152,45.64791 -67.7802,45.64791 z"
       style="font-family:Alegreya;-inkscape-font-specification:Alegreya"
       id="path1068" />
    <path
       d="m 2223.5226,469.30173 c 60.4028,0 106.9728,-51.18099 106.9728,-117.11686 0,-60.40279 -36.8872,-102.36198 -89.4514,-102.36198 -60.4028,0 -106.9729,51.18099 -106.9729,117.11686 0,60.40279 36.4261,102.36198 89.4515,102.36198 z m 12.9105,-22.59341 c -38.7316,0 -65.4748,-37.80938 -65.4748,-93.14018 0,-48.41445 21.6712,-78.84639 56.253,-78.84639 38.7315,0 65.4748,38.73156 65.4748,94.06236 0,47.95336 -21.6713,77.92421 -56.253,77.92421 z"
       style="font-family:Alegreya;-inkscape-font-specification:Alegreya"
       id="path1070" />
  </g>
</svg>
