<svg xmlns="http://www.w3.org/2000/svg" width="320.656" height="768.595"><path d="M247.322 895.819c-12.361-1.797-24.424-7.097-34.697-15.245-10.689-8.478-17.998-20.797-20.96-35.326-2.937-14.398 1.507-34.129 10.823-48.058 12.307-18.4 32.4-29.472 53.398-29.426 27 .059 44.701 13.592 48.371 36.982 2.242 14.287-6.209 28.91-20.201 34.957-8.993 3.886-8.703 4.038-7.041-3.676 2.086-9.68 1.3-19.73-2.082-26.643-2.914-5.956-11.438-14.508-17.493-17.549-17.611-8.846-40.131-2.286-48.415 14.104-7.804 15.44-4.743 31.269 8.335 43.104 11.478 10.386 28.495 16.571 41.938 15.242 7.61-.753 19.668-4.59 26.024-8.284 2.475-1.438 7.142-5.121 10.37-8.185 10.283-9.756 16.45-20.522 21.075-36.795 7.762-27.307 6.17-51.714-6.119-93.775-2.57-8.8-4.961-16.342-5.312-16.761-.35-.42-6.01.343-12.576 1.695-19.586 4.031-28.611 4.872-45.938 4.278-19.525-.67-34.209-3.257-50.186-8.844-15.001-5.245-21.495-8.501-33.314-16.706-29.472-20.458-49.215-49.167-56.504-82.162-2.535-11.475-3.06-33.478-1.072-45 1.76-10.21 9.11-33.15 13.273-41.426 4.737-9.42 13.723-24.031 19.11-31.074 2.944-3.85 7.21-9.475 9.48-12.5 5.482-7.305 22.03-26.428 32.021-37a3111.69 3111.69 0 0 0 11.03-11.72l2.997-3.22-1.697-5.78c-5.105-17.392-10.045-47.526-11.11-67.78-1.485-28.216 4.387-65.965 15.01-96.5 5.61-16.123 11.874-30.473 23.7-54.286 13.339-26.86 15.055-30.676 19.43-43.214 4.506-12.91 7.402-17.83 11.7-19.87 15.614-7.41 33.43 10.022 48.515 47.47 10.298 25.566 14.578 52.395 13.862 86.9-.379 18.274-.855 23.526-3.175 35-3.91 19.348-11.39 40.573-21.317 60.5-11.054 22.19-33.029 52.175-58.453 79.764l-7.7 8.356 2.305 7.44c2.986 9.64 6.59 17.94 7.788 17.94.52 0 2.958-1.383 5.415-3.074 10.203-7.02 28.047-13.929 45.128-17.474 11.79-2.448 14.1-2.612 30.264-2.15 15.524.443 18.8.85 29 3.611 36.5 9.878 66.145 36.503 76.949 69.109 9.515 28.715 7.558 57.826-5.873 87.396-6.931 15.258-15.092 26.565-30.068 41.655-15.62 15.74-34.267 28.601-52.921 36.5-4.998 2.116-9.087 4.27-9.087 4.786s1.557 5.484 3.46 11.04c10.196 29.763 16.944 60.413 19.618 89.101 2.277 24.427-1.75 45.318-12.037 62.432-11.52 19.167-31.186 33.19-54.04 38.531-8.005 1.87-23.623 2.682-31 1.61zm2.656-212.056c11.274-1.017 30.945-5.147 39.168-8.224 4.947-1.85 5.297-2.194 4.734-4.645-.806-3.508-9.767-28.722-15.335-43.148-2.442-6.325-6.594-17.125-9.228-24-2.633-6.875-6.151-15.65-7.817-19.5l-3.03-7-2.512 5.414c-3.045 6.56-5.146 17.555-4.258 22.284.357 1.906 2.457 7.202 4.666 11.77 2.209 4.568 3.786 8.536 3.504 8.818-1.053 1.053-15.015-1.941-22.479-4.82-25.15-9.698-45.619-32.184-50.57-55.553-1.734-8.185-1.935-23.657-.415-31.979 2.643-14.476 10.749-29.145 23.075-41.758l8.659-8.861-2.33-6.657c-4.77-13.635-6.012-16.684-6.973-17.128-.993-.458-26.875 27.513-37.446 40.47-27.83 34.114-39.214 60.88-37.76 88.79 1.988 38.16 24.262 70.264 59.52 85.786 9.877 4.348 25.381 8.624 35.671 9.839 9.612 1.134 9.708 1.135 21.156.102zm73.245-24.045c19.406-10.301 36.949-25.264 50.002-42.65 15.988-21.292 23.032-43.066 21.78-67.322-.626-12.134-3.591-26.475-7.128-34.472-6.782-15.335-20.83-30.453-34.017-36.608-9.653-4.505-16.731-5.924-29.471-5.906-18.13.024-39.72 6.687-55.284 17.06-7.552 5.034-23.783 18.65-23.783 19.952 0 1.769 7.878 19.47 8.649 19.432.468-.023 5.576-1.598 11.351-3.5 10.188-3.355 10.961-3.456 26-3.418 14.318.037 16.11.253 23.49 2.824 10.676 3.72 18.395 8.564 24.429 15.334 12.669 14.215 14.435 36.067 4.303 53.259-4.812 8.165-15.538 18.981-22.635 22.825-3.073 1.664-5.587 2.882-5.587 2.705 0-.176.946-2.496 2.101-5.154 4.326-9.95 5.293-14.621 5.347-25.833.066-13.89-1.392-19.11-7.122-25.482-5.378-5.982-11.737-8.449-20.174-7.827-6.357.468-14.951 4.108-19.946 8.447l-3.295 2.862 3.947 8.122c7.745 15.94 21.56 50.194 30.298 75.127 2.94 8.387 5.794 15.24 6.344 15.23.55-.01 5.23-2.262 10.401-5.007zm-95.534-95.46c2.777-7.229 9.184-17.12 12.171-18.793.804-.45 1.462-1.312 1.462-1.916 0-2.446-8.424-21.658-9.268-21.137-2.587 1.599-12.565 16.666-13.684 20.664-1.837 6.561-.928 15.055 2.4 22.42 1.554 3.438 3.101 6.245 3.439 6.238.337-.007 1.903-3.371 3.48-7.476zm-17.367-159.525c0-.557 5.683-7.645 12.629-15.75 37.45-43.702 55.126-76.14 60.887-111.737 3.745-23.141 2.623-59.702-2.563-83.5-2.481-11.387-6.893-27.195-7.89-28.277-.395-.428-3.124 3.622-6.065 9-2.941 5.378-8.727 15.402-12.856 22.277-26.581 44.253-38.867 81.65-45.664 139-2.33 19.657-3.064 49.936-1.479 60.994.71 4.954 1.676 9.006 2.146 9.006s.855-.456.855-1.013z" style="fill:#000" transform="translate(-104.533 -127.702)"/></svg>